<svg xmlns="http://www.w3.org/2000/svg" xmlns:xlink="http://www.w3.org/1999/xlink" width="66.674" height="80" viewBox="0 0 66.674 80">
  <defs>
    <linearGradient id="linear-gradient" y1="0.5" x2="1" y2="0.5" gradientUnits="objectBoundingBox">
      <stop offset="0" stop-color="#fa4a84"/>
      <stop offset="1" stop-color="#7e51ff"/>
    </linearGradient>
  </defs>
  <path id="Combined_Shape" data-name="Combined Shape" d="M13.328,78.854A20.013,20.013,0,0,1,0,60V34.08A34.575,34.575,0,0,1,8.663,11.161,32.648,32.648,0,0,1,30.308.133C31.312.045,32.329,0,33.329,0a33.338,33.338,0,0,1,5.7,66.185l-.012.01a.169.169,0,0,1-.023.02A19.917,19.917,0,0,1,20,80,19.588,19.588,0,0,1,13.328,78.854Zm20-65.511a19.985,19.985,0,0,0-20,20V60.3A6.381,6.381,0,0,0,19.7,66.67a6.961,6.961,0,0,0,6.954-6.953,6.278,6.278,0,0,1,2-4.451,6.729,6.729,0,0,1,4.605-1.922,39.151,39.151,0,0,0,5.345-.707,20.152,20.152,0,0,0,10.723-7.294A20.065,20.065,0,0,0,34.152,13.36c-.274-.011-.551-.016-.823-.016l0,0ZM26.657,40.031V33.359a6.672,6.672,0,1,1,6.672,6.672Z" fill="url(#linear-gradient)"/>
</svg>
